<!-- Generated by IcoMoon.io -->
<svg version="1.1" xmlns="http://www.w3.org/2000/svg" width="30" height="32" viewBox="0 0 30 32">
<title>asterisk</title>
<path d="M26.464 18.752q0.832 0.448 1.056 1.376t-0.224 1.76l-1.12 1.952q-0.48 0.832-1.408 1.056t-1.728-0.224l-4.768-2.72v5.472q0 0.928-0.672 1.6t-1.6 0.704h-2.272q-0.928 0-1.632-0.704t-0.672-1.6v-5.472l-4.736 2.72q-0.832 0.48-1.76 0.224t-1.376-1.056l-1.152-1.952q-0.448-0.832-0.224-1.76t1.088-1.376l4.736-2.752-4.736-2.752q-0.832-0.448-1.088-1.376t0.224-1.76l1.152-1.952q0.48-0.832 1.376-1.056t1.76 0.224l4.736 2.72v-5.472q0-0.928 0.672-1.6t1.632-0.704h2.272q0.928 0 1.6 0.704t0.672 1.6v5.472l4.768-2.72q0.832-0.48 1.728-0.224t1.408 1.056l1.12 1.952q0.48 0.832 0.224 1.76t-1.056 1.376l-4.736 2.752z"></path>
</svg>
