<!-- Generated by IcoMoon.io -->
<svg version="1.1" xmlns="http://www.w3.org/2000/svg" width="32" height="32" viewBox="0 0 32 32">
<title>envelope-open-o</title>
<path d="M26.336 16.288l0.672 0.928q0.16 0.192 0.128 0.416t-0.192 0.352q-0.768 0.608-2.272 1.76t-2.624 2.016-1.184 0.928q-0.704 0.576-1.088 0.864t-1.056 0.736-1.376 0.64-1.312 0.224h-0.064q-0.64 0-1.312-0.224t-1.344-0.64-1.088-0.736-1.088-0.864q-0.096-0.064-1.152-0.896t-2.56-1.984-2.176-1.696q-0.224-0.128-0.224-0.352t0.096-0.416l0.672-0.928q0.128-0.192 0.384-0.224t0.448 0.096q1.664 1.312 5.44 4.224 0.096 0.064 0.8 0.64t1.056 0.832 1.024 0.576 1.024 0.288h0.064q0.416 0 1.024-0.288t1.024-0.576 1.088-0.832 0.768-0.64q4.608-3.52 5.568-4.32 0.224-0.128 0.448-0.128t0.384 0.224zM29.728 29.152v-16.576q-1.632-1.504-2.848-2.496-1.632-1.312-6.944-5.408-0.064-0.064-0.768-0.64t-1.088-0.864-0.992-0.576-1.056-0.32h-0.064q-0.416 0-1.024 0.32t-1.024 0.576-1.088 0.864-0.768 0.64q-3.84 2.944-5.632 4.384t-2.304 1.856-1.472 1.312q-0.256 0.224-0.384 0.352v16.576q0 0.224 0.192 0.384t0.384 0.192h26.304q0.224 0 0.384-0.192t0.192-0.384zM32 12.576v16.576q0 1.184-0.832 2.016t-2.016 0.832h-26.304q-1.152 0-2.016-0.832t-0.832-2.016v-16.576q0-0.992 0.736-1.696 2.208-2.016 6.24-5.184t4.16-3.232q0.64-0.544 1.056-0.864t1.12-0.736 1.344-0.64 1.312-0.224h0.064q0.64 0 1.312 0.224t1.376 0.64 1.088 0.736 1.056 0.864q0.768 0.64 2.784 2.176t4.032 3.168 3.584 3.072q0.736 0.704 0.736 1.696z"></path>
</svg>
