<!-- Generated by IcoMoon.io -->
<svg version="1.1" xmlns="http://www.w3.org/2000/svg" width="27" height="32" viewBox="0 0 27 32">
<title>github-circled</title>
<path d="M13.728 2.272q3.712 0 6.88 1.856t4.992 4.992 1.824 6.88q0 4.48-2.624 8.064t-6.752 4.96q-0.48 0.096-0.704-0.128t-0.224-0.544q0-0.032 0-1.376t0-2.4q0-1.728-0.928-2.528 1.024-0.096 1.824-0.32t1.696-0.704 1.44-1.184 0.96-1.856 0.352-2.688q0-2.144-1.408-3.68 0.672-1.632-0.128-3.648-0.512-0.16-1.472 0.192t-1.632 0.8l-0.672 0.416q-1.664-0.48-3.424-0.48t-3.456 0.48q-0.256-0.192-0.736-0.48t-1.504-0.704-1.504-0.224q-0.8 2.016-0.16 3.648-1.408 1.536-1.408 3.68 0 1.504 0.384 2.656t0.928 1.888 1.44 1.184 1.664 0.704 1.824 0.32q-0.672 0.64-0.864 1.856-0.384 0.16-0.8 0.256t-1.024 0.096-1.152-0.384-0.992-1.12q-0.352-0.576-0.864-0.928t-0.896-0.448l-0.352-0.032q-0.384 0-0.512 0.064t-0.096 0.224 0.16 0.256 0.224 0.192l0.128 0.096q0.384 0.192 0.768 0.672t0.576 0.928l0.192 0.416q0.224 0.672 0.768 1.088t1.184 0.544 1.248 0.096 0.992-0.032l0.416-0.096q0 0.704 0 1.6t0.032 0.96q0 0.32-0.256 0.544t-0.704 0.128q-4.128-1.376-6.752-4.96t-2.624-8.064q0-3.744 1.856-6.88t4.96-4.992 6.912-1.856zM5.184 21.984q0.064-0.128-0.096-0.224-0.192-0.032-0.256 0.032-0.032 0.128 0.128 0.224t0.224-0.032zM5.76 22.592q0.128-0.096-0.032-0.288-0.192-0.16-0.288-0.064-0.128 0.096 0.032 0.288t0.288 0.064zM6.272 23.392q0.192-0.128 0-0.352-0.128-0.224-0.288-0.096-0.16 0.096 0 0.32t0.288 0.128zM7.040 24.128q0.128-0.128-0.064-0.32-0.224-0.224-0.352-0.064-0.16 0.16 0.064 0.352 0.192 0.192 0.352 0.032zM8.064 24.576q0.032-0.192-0.256-0.288-0.256-0.064-0.32 0.128t0.224 0.288q0.256 0.096 0.352-0.128zM9.184 24.672q0-0.224-0.32-0.192-0.288 0-0.288 0.192 0 0.224 0.32 0.192 0.288 0 0.288-0.192zM10.208 24.512q-0.032-0.224-0.32-0.16-0.288 0.032-0.256 0.256t0.32 0.128 0.256-0.224z"></path>
</svg>
