<!-- Generated by IcoMoon.io -->
<svg version="1.1" xmlns="http://www.w3.org/2000/svg" width="100%" height="100%" viewBox="0 0 41 32">
<title>handshake-o</title>
<path d="M3.424 20.576q0.736 0 0.992-0.576t0-1.152-0.992-0.576-0.992 0.576 0 1.152 0.992 0.576zM29.728 19.52q-0.16-0.224-0.672-0.864t-0.736-0.992-0.704-0.864-0.736-0.96-0.736-0.832-0.8-0.864l-2.24 2.496q-1.472 1.664-3.712 1.632t-3.68-1.728q-1.024-1.248-0.992-2.816t1.024-2.816l3.168-3.68q-0.384-0.192-0.896-0.288t-0.864-0.128-0.992 0.032-0.896 0q-1.632 0-2.816 1.184l-2.816 2.816h-2.784v9.728q0.096 0 0.384 0t0.384 0 0.352 0.032 0.384 0.064 0.288 0.16 0.352 0.224l5.28 5.216q2.080 1.984 4.064 1.984 1.408 0 2.24-0.832 1.024 0.352 2.016-0.128t1.28-1.536q1.312 0.128 2.272-0.768 0.352-0.32 0.64-0.832t0.256-0.896q0.16 0.192 0.768 0.192 0.768 0 1.376-0.384t0.896-0.96 0.192-1.28-0.544-1.312zM32.576 20.576h1.696v-9.152h-1.632l-2.816-3.2q-1.184-1.376-3.008-1.376h-3.008q-1.568 0-2.592 1.216l-3.744 4.32q-0.48 0.608-0.48 1.344t0.48 1.344q0.768 0.896 1.952 0.928t1.984-0.864l3.456-3.904q0.448-0.416 0.96-0.384t0.832 0.48 0.16 1.024q0.288 0.32 0.992 1.12t1.056 1.216q0.544 0.64 1.472 1.888t1.152 1.504q0.928 1.184 1.088 2.496zM37.728 20.576q0.704 0 0.992-0.576t0-1.152-0.992-0.576-1.024 0.576 0 1.152 1.024 0.576zM41.152 10.272v11.456q0 0.448-0.352 0.8t-0.8 0.32h-7.744q-0.48 1.184-1.472 1.92t-2.24 0.896q-0.576 0.864-1.44 1.472t-1.824 0.8q-0.736 0.96-1.856 1.472t-2.304 0.448q-1.056 0.608-2.24 0.704t-2.272-0.256-2.112-0.96-1.824-1.44l-5.12-5.056h-6.4q-0.48 0-0.8-0.32t-0.352-0.8v-12q0-0.48 0.352-0.832t0.8-0.32h7.52q0.256-0.256 0.832-0.864t0.832-0.864 0.8-0.704 0.896-0.672 0.928-0.448 1.088-0.352 1.216-0.096h2.080q1.792 0 3.232 0.992 1.472-0.992 3.232-0.992h3.008q0.608 0 1.184 0.096t1.024 0.256 0.896 0.48 0.8 0.544 0.768 0.704 0.704 0.768 0.736 0.864 0.736 0.864h6.336q0.48 0 0.8 0.32t0.352 0.8z"></path>
</svg>
