<!-- Generated by IcoMoon.io -->
<svg version="1.1" xmlns="http://www.w3.org/2000/svg" width="100%" height="100%" viewBox="0 0 34 32">
<title>code</title>
<path d="M11.008 24.992l-0.896 0.896q-0.16 0.16-0.384 0.16t-0.416-0.16l-8.32-8.352q-0.192-0.16-0.192-0.384t0.192-0.416l8.32-8.32q0.16-0.192 0.416-0.192t0.384 0.192l0.896 0.896q0.192 0.16 0.192 0.416t-0.192 0.384l-7.008 7.040 7.008 7.008q0.192 0.192 0.192 0.416t-0.192 0.416zM21.568 5.92l-6.656 23.072q-0.064 0.224-0.288 0.352t-0.416 0.032l-1.088-0.288q-0.256-0.096-0.352-0.288t-0.064-0.448l6.688-23.040q0.064-0.256 0.256-0.352t0.416-0.064l1.12 0.32q0.224 0.064 0.352 0.288t0.032 0.416zM33.312 17.536l-8.32 8.352q-0.192 0.16-0.416 0.16t-0.416-0.16l-0.896-0.896q-0.16-0.192-0.16-0.416t0.16-0.416l7.008-7.008-7.008-7.040q-0.16-0.16-0.16-0.384t0.16-0.416l0.896-0.896q0.192-0.192 0.416-0.192t0.416 0.192l8.32 8.32q0.16 0.16 0.16 0.416t-0.16 0.384z"></path>
</svg>
