<?xml version="1.0" encoding="UTF-8" standalone="no"?>
<svg
   xmlns:dc="http://purl.org/dc/elements/1.1/"
   xmlns:cc="http://creativecommons.org/ns#"
   xmlns:rdf="http://www.w3.org/1999/02/22-rdf-syntax-ns#"
   xmlns:svg="http://www.w3.org/2000/svg"
   xmlns="http://www.w3.org/2000/svg"
   viewBox="0 0 719.15997 141.77333"
   height="141.77333"
   width="719.15997"
   xml:space="preserve"
   id="svg2"
   version="1.1"><metadata
     id="metadata8"><rdf:RDF><cc:Work
         rdf:about=""><dc:format>image/svg+xml</dc:format><dc:type
           rdf:resource="http://purl.org/dc/dcmitype/StillImage" /></cc:Work></rdf:RDF></metadata><defs
     id="defs6" /><g
     transform="matrix(1.3333333,0,0,-1.3333333,0,141.77333)"
     id="g10"><g
       transform="scale(0.1)"
       id="g12"><path
         id="path14"
         style="fill:#231f20;fill-opacity:1;fill-rule:nonzero;stroke:none"
         d="m 1800.38,179.895 h -463.99 c -15.49,0.023 -27.18,11.726 -27.22,27.214 v 56.633 c -0.31,13.879 4.14,20.071 12.69,30.664 l 369.31,429.364 h -361.86 c -15.5,0.031 -27.19,11.73 -27.22,27.207 v 40.121 c 0.03,15.472 11.72,27.172 27.22,27.195 h 468.71 c 15.49,-0.023 27.18,-11.723 27.21,-27.188 v -57.824 c 0.21,-10.441 -3.4,-19.308 -11.74,-28.609 L 1443.24,274.438 h 357.13 c 15.49,-0.04 27.18,-11.739 27.22,-27.208 v -40.113 c -0.04,-15.496 -11.73,-27.199 -27.21,-27.222 m 914.67,-11.786 h 0.04 c 33.24,0.645 57.82,7.215 67.44,18.012 3.41,3.844 5,8.254 4.57,12.621 -0.22,3.594 -0.22,3.594 -9.34,46.305 l -0.22,1.012 c -1.97,11.171 -9.95,16.25 -16.51,16.25 l -0.9,-0.082 c 0,0 -8.34,0.402 -16.59,0.402 h -0.07 c -23.69,0.754 -43.32,4.203 -43.72,38.871 v 725.18 c -0.03,12.09 -7.31,24.5 -21.31,24.83 l -4.13,-0.04 -64.77,-16.59 c -11.03,-1.13 -22.51,-8.98 -22.03,-23.55 V 299.133 c 0.12,-84.356 45.39,-130.883 127.48,-131.024 z m 1309.67,11.786 h -57.82 c -15.48,0.023 -27.16,11.726 -27.21,27.214 v 436.512 c -1.05,73.848 -23.11,94.387 -102.63,95.488 -89.94,0 -181.02,-22.562 -211.02,-30.746 V 207.117 c -0.03,-15.762 -10.97,-27.199 -26.03,-27.222 h -59 c -15.49,0.023 -27.19,11.726 -27.21,27.214 v 489.602 c -0.86,45.324 3.39,76.656 67.86,97.508 61.72,21.308 179.82,39.375 257.85,39.433 148.69,-0.195 212.19,-53.843 212.39,-179.406 V 207.117 c -0.02,-15.496 -11.69,-27.199 -27.18,-27.222 m 581.01,541.339 c -21.59,5.496 -81.83,19.063 -149.69,19.063 -124.61,-1.152 -176.9,-35.004 -178.19,-241.817 1.46,-227.093 69.07,-239.367 179.3,-240.562 l 0.08,-4.754 v 4.754 c 68.59,0 127.46,14.309 148.45,20.082 z m 30.37,-532.851 -6.86,-1.731 c -36.78,-9.324 -87.17,-22.089 -175.5,-22.089 h -0.19 c -243.42,0.355 -291.19,123.144 -291.45,335.117 0.3,243.133 77.36,333.633 284.36,333.972 73.03,0 123.33,-9.453 159.44,-18.172 l -0.22,195.83 c -0.31,8.58 3.59,19.83 23.91,23.7 l 64.64,16.5 h 3.52 c 14.87,-0.37 20.13,-13.61 20.15,-24.82 V 290.879 c 1.01,-46.465 -4.46,-86.324 -81.8,-102.496 m 472.03,70.711 c -159.54,0.715 -167.55,82.597 -168.64,239.375 1.09,157.648 9.08,239.949 168.61,240.64 159.57,-0.691 167.56,-82.992 168.64,-240.554 -1.08,-156.864 -9.09,-238.746 -168.61,-239.461 m -0.02,574.558 C 4845.1,833.289 4822.81,660.473 4822.55,498.5 c 0.26,-161.375 22.55,-333.582 285.56,-333.937 h 0.02 c 262.81,0.355 285.21,172.101 285.58,333.957 -0.28,169.378 -22.57,334.769 -285.6,335.132 M 3285.16,495.098 c -26.36,-0.309 -154.11,-2.36 -204.99,-13.223 l -3.98,-0.895 c -57.21,-12.773 -102.39,-22.843 -102.93,-107.554 0.1,-106.5 81.63,-116.055 165.13,-116.688 l 0.06,-4.761 v 4.761 c 52.27,0 101.6,7.407 146.7,22.043 z m 112.81,155.59 V 312.102 c 1.14,-84.188 -20.49,-111.082 -105.23,-130.75 -37.11,-7.696 -93.96,-16.778 -155.56,-16.789 h -0.01 c -90.77,0.187 -279.62,0.566 -279.68,204.187 -0.61,160.395 95.73,188.262 212.14,206.141 76.29,12.238 153.85,14.058 193.3,14.058 10.64,0 17.56,-0.074 21.64,-0.14 v 57.175 c -0.36,38.227 -0.58,61.329 -36.3,74.848 -22.02,9.313 -54.87,13.563 -103.73,13.563 -80.54,0 -152.67,-18.047 -200.4,-29.997 l -18.24,-4.253 c -1.95,-0.508 -4.06,-1.02 -6.78,-1.145 h -0.03 c -8.42,0 -17.65,4.973 -21.03,16.07 l -0.27,1.016 -10.79,54.48 -0.01,2.832 c 0.15,12.836 9.44,20.352 18.14,23.129 38.48,14.348 140.18,37.067 249.74,37.125 80.07,-0.047 137.88,-10.445 176.79,-31.843 66.58,-35.204 66.43,-99.481 66.31,-151.121 M 2341.07,278.781 c -45.1,-14.636 -94.43,-22.043 -146.69,-22.043 v -4.761 l -0.07,4.761 c -83.48,0.633 -165.03,10.188 -165.13,116.688 0.54,84.711 45.73,94.781 102.94,107.554 l 3.96,0.895 c 50.89,10.863 178.65,12.914 204.99,13.223 z m 46.5,523.028 c -38.88,21.398 -96.71,31.796 -176.78,31.843 -109.55,-0.058 -211.26,-22.777 -249.74,-37.125 -8.7,-2.777 -17.99,-10.293 -18.14,-23.129 l 0.02,-2.832 10.78,-54.48 0.27,-1.016 C 1957.35,703.973 1966.6,699 1975,699 h 0.04 c 2.72,0.125 4.83,0.637 6.79,1.145 l 18.23,4.253 c 47.72,11.95 119.85,29.997 200.4,29.997 48.86,0 81.7,-4.25 103.72,-13.563 35.73,-13.519 35.96,-36.621 36.32,-74.848 v -57.175 c -4.09,0.066 -11,0.14 -21.64,0.14 -39.45,0 -117.02,-1.82 -193.31,-14.058 -116.42,-17.879 -212.73,-45.746 -212.13,-206.141 0.04,-203.621 188.9,-204 279.66,-204.187 h 0.01 c 61.61,0.011 118.46,9.093 155.58,16.789 84.72,19.668 106.35,46.562 105.23,130.75 v 338.586 c 0.11,51.64 0.27,115.917 -66.33,151.121" /><path
         id="path16"
         style="fill:#f47126;fill-opacity:1;fill-rule:nonzero;stroke:none"
         d="M 214.898,0 C 175.555,0 153.711,9.19141 142.031,15.9492 125.871,25.25 96.0234,49 69.2969,119.355 26.4453,232.039 1.13281,369.629 0,531.348 v 0.586 c 1.13281,161.718 26.4453,299.289 69.2969,411.992 26.7265,70.334 56.5741,94.094 72.7341,103.414 11.676,6.75 33.496,15.93 72.832,15.93 15.008,0 32.571,-1.34 53.086,-4.65 119.024,-19.24 250.821,-66.132 391.426,-146.011 l 0.527,-0.277 c 139.473,-81.836 245.977,-172.539 322.149,-265.996 47.539,-58.34 53.189,-96.043 53.189,-114.695 0,-18.645 -5.65,-56.368 -53.189,-114.688 C 905.879,323.484 799.375,232.77 659.902,150.945 l -0.527,-0.3 C 518.77,70.7813 386.973,23.8906 267.949,4.64844 247.445,1.33203 229.902,0 214.898,0" /></g></g></svg>