<!-- Generated by IcoMoon.io -->
<svg version="1.1" xmlns="http://www.w3.org/2000/svg" width="100%" height="100%" viewBox="0 0 32 32">
<title>reddit-alien</title>
<path d="M32 15.104q0 1.024-0.512 1.888t-1.44 1.28q0.224 0.832 0.224 1.728 0 2.752-1.92 5.12t-5.184 3.744-7.136 1.344-7.136-1.344-5.184-3.744-1.888-5.12q0-0.832 0.192-1.696-0.896-0.416-1.472-1.312t-0.544-1.888q0-1.472 1.024-2.496t2.528-1.056q1.536 0 2.592 1.12 3.904-2.72 9.184-2.88l2.080-9.312q0.064-0.224 0.288-0.384t0.448-0.064l6.592 1.44q0.32-0.672 0.96-1.056t1.408-0.416q1.12 0 1.888 0.768t0.8 1.888-0.8 1.888-1.888 0.8-1.888-0.768-0.768-1.888l-5.952-1.344-1.856 8.448q5.344 0.16 9.248 2.848 1.056-1.088 2.56-1.088 1.472 0 2.528 1.056t1.024 2.496zM7.456 18.656q0 1.12 0.8 1.888t1.856 0.8 1.92-0.8 0.768-1.888-0.768-1.888-1.92-0.768q-1.088 0-1.856 0.8t-0.8 1.856zM21.92 24.992q0.192-0.192 0.192-0.448t-0.192-0.48q-0.16-0.16-0.448-0.16t-0.448 0.16q-0.736 0.768-2.176 1.12t-2.848 0.352-2.848-0.352-2.176-1.12q-0.192-0.16-0.448-0.16t-0.448 0.16q-0.192 0.192-0.192 0.448t0.192 0.48q0.768 0.768 2.112 1.216t2.176 0.544 1.632 0.064 1.632-0.064 2.176-0.544 2.112-1.216zM21.888 21.344q1.088 0 1.888-0.8t0.768-1.888q0-1.088-0.8-1.856t-1.856-0.8q-1.12 0-1.92 0.768t-0.768 1.888 0.768 1.888 1.92 0.8z"></path>
</svg>
