<!-- Generated by IcoMoon.io -->
<svg version="1.1" xmlns="http://www.w3.org/2000/svg" width="100%" height="100%" viewBox="0 0 27 32">
<title>doc-text</title>
<path d="M26.208 6.784q0.512 0.512 0.864 1.344t0.352 1.6v20.544q0 0.736-0.48 1.216t-1.216 0.512h-24q-0.736 0-1.216-0.512t-0.512-1.216v-28.544q0-0.736 0.512-1.216t1.216-0.512h16q0.704 0 1.568 0.352t1.344 0.864zM18.272 2.432v6.72h6.72q-0.16-0.544-0.384-0.736l-5.6-5.6q-0.192-0.224-0.736-0.384zM25.152 29.728v-18.304h-7.424q-0.736 0-1.216-0.512t-0.512-1.184v-7.456h-13.728v27.456h22.88zM6.848 14.272q0-0.224 0.16-0.384t0.416-0.16h12.576q0.256 0 0.416 0.16t0.16 0.384v1.152q0 0.256-0.16 0.416t-0.416 0.16h-12.576q-0.256 0-0.416-0.16t-0.16-0.416v-1.152zM20 18.272q0.256 0 0.416 0.16t0.16 0.416v1.152q0 0.256-0.16 0.416t-0.416 0.16h-12.576q-0.256 0-0.416-0.16t-0.16-0.416v-1.152q0-0.256 0.16-0.416t0.416-0.16h12.576zM20 22.848q0.256 0 0.416 0.16t0.16 0.416v1.152q0 0.256-0.16 0.416t-0.416 0.16h-12.576q-0.256 0-0.416-0.16t-0.16-0.416v-1.152q0-0.256 0.16-0.416t0.416-0.16h12.576z"></path>
</svg>
