<!-- Generated by IcoMoon.io -->
<svg version="1.1" xmlns="http://www.w3.org/2000/svg" width="100%" height="100%" viewBox="0 0 32 32">
<title>slideshare</title>
<path d="M15.584 13.216q0 1.472-1.12 2.528t-2.72 1.088-2.72-1.088-1.152-2.528q0-1.504 1.152-2.56t2.72-1.056 2.72 1.056 1.12 2.56zM24.544 13.216q0 1.472-1.12 2.528t-2.72 1.088q-1.6 0-2.72-1.088t-1.152-2.528q0-1.504 1.152-2.56t2.72-1.056q1.6 0 2.72 1.056t1.12 2.56zM28.576 16.416v-11.904q0-1.536-0.576-2.208t-1.984-0.64h-19.84q-1.504 0-2.016 0.608t-0.544 2.24v12.032q0.768 0.416 1.6 0.704t1.44 0.512 1.44 0.32 1.28 0.192 1.248 0.064 1.024 0.032 1.024-0.064 0.8-0.032q1.216 0 1.696 0.48 0.096 0.128 0.16 0.16 0.48 0.448 1.088 0.928 0.128-1.632 2.112-1.568 0.096 0 0.672 0.032t0.768 0.032 0.8 0.032 0.96-0.032 0.96-0.064 1.088-0.16 1.12-0.224 1.184-0.352 1.216-0.48 1.28-0.64zM31.488 16.352q-2.176 2.656-6.656 4.48 1.504 5.088-0.416 8.32-1.152 2.016-3.264 2.624-1.856 0.576-3.232-0.256-1.536-0.896-1.472-2.944l-0.032-5.824q-0.128-0.032-0.416-0.096t-0.416-0.096l-0.032 6.016q0.064 2.048-1.472 2.944-1.408 0.832-3.264 0.256-2.112-0.64-3.264-2.656-1.856-3.232-0.384-8.288-4.48-1.824-6.656-4.48-0.448-0.672-0.064-1.152t1.056 0.032q0.096 0.032 0.224 0.128t0.192 0.128v-12.384q0-1.28 0.832-2.208t2.048-0.896h22.432q1.184 0 2.048 0.896t0.832 2.208v12.384l0.384-0.256q0.672-0.48 1.056-0.032t-0.064 1.152z"></path>
</svg>
