<!-- Generated by IcoMoon.io -->
<svg version="1.1" xmlns="http://www.w3.org/2000/svg" width="27" height="32" viewBox="0 0 27 32">
<title>street-view</title>
<path d="M25.152 27.424q0 1.12-1.12 2.048t-2.912 1.44-4.032 0.8-4.512 0.288-4.544-0.288-4-0.8-2.944-1.44-1.088-2.048q0-0.864 0.576-1.568t1.632-1.184 2.112-0.8 2.336-0.544q0.48-0.064 0.864 0.192t0.448 0.736q0.096 0.48-0.16 0.864t-0.768 0.48q-1.024 0.16-1.888 0.416t-1.344 0.448-0.864 0.416-0.512 0.352-0.16 0.224q0.064 0.192 0.512 0.48t1.28 0.576 2.048 0.576 2.848 0.448 3.616 0.192 3.584-0.192 2.88-0.448 2.048-0.576 1.28-0.608 0.48-0.48q0-0.096-0.128-0.224t-0.512-0.32-0.864-0.416-1.376-0.448-1.888-0.416q-0.448-0.096-0.736-0.48t-0.192-0.864q0.096-0.448 0.48-0.736t0.864-0.192q1.248 0.224 2.336 0.544t2.112 0.8 1.6 1.184 0.608 1.568zM18.272 11.424v6.848q0 0.48-0.32 0.8t-0.8 0.352h-1.152v6.848q0 0.48-0.352 0.8t-0.8 0.352h-4.576q-0.448 0-0.8-0.352t-0.32-0.8v-6.848h-1.152q-0.448 0-0.8-0.352t-0.352-0.8v-6.848q0-0.928 0.672-1.6t1.632-0.672h6.848q0.96 0 1.632 0.672t0.64 1.6zM16.576 4.576q0 1.664-1.184 2.816t-2.816 1.184-2.848-1.184-1.152-2.816 1.152-2.848 2.848-1.152 2.816 1.152 1.184 2.848z"></path>
</svg>
