<!-- Generated by IcoMoon.io -->
<svg version="1.1" xmlns="http://www.w3.org/2000/svg" width="100%" height="100%" viewBox="0 0 32 32">
<title>universal-access</title>
<path d="M24.544 11.744q-0.128-0.48-0.512-0.704t-0.864-0.16q-4.672 1.12-7.168 1.12t-7.168-1.12q-0.448-0.096-0.864 0.16t-0.512 0.704 0.128 0.864 0.736 0.512q3.456 0.8 5.408 1.024-0.032 2.816-0.288 4.8t-0.48 2.784-0.736 2.048l-0.16 0.384q-0.16 0.448 0.032 0.864t0.64 0.608q0.16 0.096 0.416 0.096 0.768 0 1.056-0.736l0.16-0.384q0.96-2.464 1.248-4.608h0.768q0.288 2.144 1.248 4.608l0.16 0.384q0.288 0.736 1.056 0.736 0.256 0 0.416-0.096 0.448-0.16 0.64-0.608t0.032-0.864l-0.16-0.384q-0.512-1.248-0.736-2.048t-0.48-2.784-0.288-4.8q1.952-0.224 5.44-1.024 0.448-0.128 0.704-0.512t0.128-0.864zM18.272 9.152q0-0.96-0.64-1.632t-1.632-0.672-1.6 0.672-0.672 1.632 0.672 1.6 1.6 0.672 1.632-0.672 0.64-1.6zM28.576 16q0 2.56-0.992 4.896t-2.688 4-4 2.688-4.896 0.992-4.896-0.992-4-2.688-2.688-4-0.992-4.896 0.992-4.896 2.688-4 4-2.688 4.896-0.992 4.896 0.992 4 2.688 2.688 4 0.992 4.896zM16 2.272q-2.784 0-5.312 1.088t-4.384 2.944-2.912 4.384-1.12 5.312 1.12 5.312 2.912 4.384 4.384 2.944 5.312 1.088 5.312-1.088 4.384-2.944 2.944-4.384 1.088-5.312-1.088-5.312-2.944-4.384-4.384-2.944-5.312-1.088zM32 16q0 3.264-1.28 6.208t-3.392 5.12-5.12 3.392-6.208 1.28-6.208-1.28-5.12-3.392-3.392-5.12-1.28-6.208 1.28-6.208 3.392-5.12 5.12-3.392 6.208-1.28 6.208 1.28 5.12 3.392 3.392 5.12 1.28 6.208z"></path>
</svg>
