<!-- Generated by IcoMoon.io -->
<svg version="1.1" xmlns="http://www.w3.org/2000/svg" width="34" height="32" viewBox="0 0 34 32">
<title>users</title>
<path d="M10.592 16q-2.88 0.096-4.736 2.272h-2.4q-1.44 0-2.464-0.704t-0.992-2.112q0-6.304 2.208-6.304 0.128 0 0.8 0.352t1.728 0.768 2.112 0.384q1.216 0 2.4-0.416-0.096 0.672-0.096 1.184 0 2.496 1.44 4.576zM29.728 27.392q0 2.112-1.312 3.36t-3.456 1.248h-15.616q-2.176 0-3.456-1.248t-1.312-3.36q0-0.96 0.064-1.856t0.256-1.952 0.448-1.952 0.768-1.728 1.12-1.44 1.536-0.96 1.984-0.352q0.192 0 0.768 0.384t1.312 0.832 1.888 0.864 2.432 0.384 2.4-0.384 1.92-0.864 1.312-0.832 0.768-0.384q1.088 0 1.984 0.352t1.504 0.96 1.12 1.44 0.768 1.728 0.48 1.952 0.256 1.952 0.064 1.856zM11.424 4.576q0 1.888-1.344 3.232t-3.232 1.344-3.232-1.344-1.344-3.232 1.344-3.232 3.232-1.344 3.232 1.344 1.344 3.232zM24 11.424q0 2.848-2.016 4.864t-4.832 1.984-4.864-1.984-2.016-4.864 2.016-4.832 4.864-2.016 4.832 2.016 2.016 4.832zM34.272 15.456q0 1.376-0.992 2.112t-2.464 0.704h-2.4q-1.824-2.176-4.704-2.272 1.44-2.080 1.44-4.576 0-0.512-0.096-1.184 1.184 0.416 2.368 0.416 1.056 0 2.144-0.384t1.728-0.768 0.768-0.352q2.208 0 2.208 6.304zM32 4.576q0 1.888-1.344 3.232t-3.232 1.344-3.232-1.344-1.344-3.232 1.344-3.232 3.232-1.344 3.232 1.344 1.344 3.232z"></path>
</svg>
