<!-- Generated by IcoMoon.io -->
<svg version="1.1" xmlns="http://www.w3.org/2000/svg" width="100%" height="100%" viewBox="0 0 25 32">
<title>rss</title>
<path d="M6.848 24q0 1.44-0.992 2.432t-2.432 0.992-2.432-0.992-0.992-2.432 0.992-2.432 2.432-0.992 2.432 0.992 0.992 2.432zM16 26.208q0.032 0.48-0.288 0.832-0.32 0.384-0.864 0.384h-2.4q-0.448 0-0.768-0.288t-0.352-0.736q-0.384-4.096-3.296-7.008t-7.008-3.296q-0.448-0.032-0.736-0.352t-0.288-0.768v-2.4q0-0.512 0.384-0.832 0.288-0.32 0.768-0.32h0.096q2.848 0.224 5.44 1.44t4.64 3.232q2.016 2.016 3.232 4.64t1.44 5.472zM25.152 26.24q0.032 0.48-0.32 0.832-0.32 0.352-0.832 0.352h-2.56q-0.448 0-0.8-0.32t-0.32-0.736q-0.224-3.84-1.824-7.296t-4.128-6.016-6.016-4.128-7.264-1.824q-0.448-0.032-0.768-0.352t-0.32-0.768v-2.56q0-0.512 0.352-0.832 0.32-0.32 0.8-0.32h0.032q4.704 0.256 8.96 2.144t7.616 5.248q3.328 3.328 5.248 7.616t2.144 8.96z"></path>
</svg>
